<mxfile host="app.diagrams.net" modified="2024-01-08T07:28:50.065Z" agent="Mozilla/5.0 (Windows NT 10.0; Win64; x64) AppleWebKit/537.36 (KHTML, like Gecko) Chrome/120.0.0.0 Safari/537.36 Edg/120.0.0.0" etag="DBQQyFzaDAeIyUXFZj1V" version="22.1.17" type="github">
  <diagram name="第 1 页" id="nhE841UUwjjlUFFot7gs">
    <mxGraphModel dx="1155" dy="654" grid="0" gridSize="10" guides="1" tooltips="1" connect="1" arrows="1" fold="1" page="1" pageScale="1" pageWidth="827" pageHeight="1169" background="#000000" math="0" shadow="0">
      <root>
        <mxCell id="0" />
        <mxCell id="1" parent="0" />
        <mxCell id="m7B9csSSpckp7PrpWBlc-17" style="edgeStyle=none;rounded=0;orthogonalLoop=1;jettySize=auto;html=1;exitX=1;exitY=0.5;exitDx=0;exitDy=0;entryX=0;entryY=0.5;entryDx=0;entryDy=0;strokeColor=#FFFFFF;endArrow=none;endFill=0;strokeWidth=2;" edge="1" parent="1" source="m7B9csSSpckp7PrpWBlc-4" target="m7B9csSSpckp7PrpWBlc-8">
          <mxGeometry relative="1" as="geometry" />
        </mxCell>
        <mxCell id="m7B9csSSpckp7PrpWBlc-20" style="edgeStyle=none;shape=connector;rounded=0;orthogonalLoop=1;jettySize=auto;html=1;exitX=1;exitY=0.5;exitDx=0;exitDy=0;entryX=0;entryY=0.5;entryDx=0;entryDy=0;labelBackgroundColor=default;strokeColor=#FFFFFF;align=center;verticalAlign=middle;fontFamily=Helvetica;fontSize=11;fontColor=default;endArrow=none;endFill=0;strokeWidth=2;" edge="1" parent="1" source="m7B9csSSpckp7PrpWBlc-1" target="m7B9csSSpckp7PrpWBlc-9">
          <mxGeometry relative="1" as="geometry" />
        </mxCell>
        <mxCell id="m7B9csSSpckp7PrpWBlc-22" style="edgeStyle=none;shape=connector;rounded=0;orthogonalLoop=1;jettySize=auto;html=1;exitX=1;exitY=0.5;exitDx=0;exitDy=0;entryX=0;entryY=0.5;entryDx=0;entryDy=0;labelBackgroundColor=default;strokeColor=#FFFFFF;align=center;verticalAlign=middle;fontFamily=Helvetica;fontSize=11;fontColor=default;endArrow=none;endFill=0;strokeWidth=2;" edge="1" parent="1" source="m7B9csSSpckp7PrpWBlc-1" target="m7B9csSSpckp7PrpWBlc-10">
          <mxGeometry relative="1" as="geometry" />
        </mxCell>
        <mxCell id="m7B9csSSpckp7PrpWBlc-1" value="&lt;i&gt;&lt;font face=&quot;Times New Roman&quot;&gt;v&lt;sub&gt;1&lt;/sub&gt;&lt;/font&gt;&lt;/i&gt;" style="ellipse;html=1;aspect=fixed;labelBackgroundColor=#000000;fontColor=#FFFFFF;fillColor=#000000;strokeColor=#FFFFFF;strokeWidth=2;" vertex="1" parent="1">
          <mxGeometry x="132" y="71" width="40" height="40" as="geometry" />
        </mxCell>
        <mxCell id="m7B9csSSpckp7PrpWBlc-19" style="edgeStyle=none;shape=connector;rounded=0;orthogonalLoop=1;jettySize=auto;html=1;exitX=1;exitY=0.5;exitDx=0;exitDy=0;labelBackgroundColor=default;strokeColor=#FFFFFF;align=center;verticalAlign=middle;fontFamily=Helvetica;fontSize=11;fontColor=default;endArrow=none;endFill=0;strokeWidth=2;" edge="1" parent="1" source="m7B9csSSpckp7PrpWBlc-2" target="m7B9csSSpckp7PrpWBlc-8">
          <mxGeometry relative="1" as="geometry" />
        </mxCell>
        <mxCell id="m7B9csSSpckp7PrpWBlc-23" style="edgeStyle=none;shape=connector;rounded=0;orthogonalLoop=1;jettySize=auto;html=1;exitX=1;exitY=0.5;exitDx=0;exitDy=0;labelBackgroundColor=default;strokeColor=#FFFFFF;align=center;verticalAlign=middle;fontFamily=Helvetica;fontSize=11;fontColor=default;endArrow=none;endFill=0;entryX=0;entryY=0.5;entryDx=0;entryDy=0;strokeWidth=2;" edge="1" parent="1" source="m7B9csSSpckp7PrpWBlc-2" target="m7B9csSSpckp7PrpWBlc-10">
          <mxGeometry relative="1" as="geometry">
            <mxPoint x="278" y="239.1428571428571" as="targetPoint" />
          </mxGeometry>
        </mxCell>
        <mxCell id="m7B9csSSpckp7PrpWBlc-2" value="&lt;i&gt;&lt;font face=&quot;Times New Roman&quot;&gt;v&lt;sub&gt;2&lt;/sub&gt;&lt;/font&gt;&lt;/i&gt;" style="ellipse;html=1;aspect=fixed;labelBackgroundColor=#000000;fontColor=#FFFFFF;fillColor=#000000;strokeColor=#FFFFFF;strokeWidth=2;" vertex="1" parent="1">
          <mxGeometry x="132" y="121" width="40" height="40" as="geometry" />
        </mxCell>
        <mxCell id="m7B9csSSpckp7PrpWBlc-21" style="edgeStyle=none;shape=connector;rounded=0;orthogonalLoop=1;jettySize=auto;html=1;exitX=1;exitY=0.5;exitDx=0;exitDy=0;entryX=0;entryY=0.5;entryDx=0;entryDy=0;labelBackgroundColor=default;strokeColor=#FFFFFF;align=center;verticalAlign=middle;fontFamily=Helvetica;fontSize=11;fontColor=default;endArrow=none;endFill=0;strokeWidth=2;" edge="1" parent="1" source="m7B9csSSpckp7PrpWBlc-3" target="m7B9csSSpckp7PrpWBlc-8">
          <mxGeometry relative="1" as="geometry" />
        </mxCell>
        <mxCell id="m7B9csSSpckp7PrpWBlc-3" value="&lt;i&gt;&lt;font face=&quot;Times New Roman&quot;&gt;v&lt;sub&gt;3&lt;/sub&gt;&lt;/font&gt;&lt;/i&gt;" style="ellipse;html=1;aspect=fixed;labelBackgroundColor=#000000;fontColor=#FFFFFF;fillColor=#000000;strokeColor=#FFFFFF;strokeWidth=2;" vertex="1" parent="1">
          <mxGeometry x="132" y="171" width="40" height="40" as="geometry" />
        </mxCell>
        <mxCell id="m7B9csSSpckp7PrpWBlc-25" style="edgeStyle=none;shape=connector;rounded=0;orthogonalLoop=1;jettySize=auto;html=1;exitX=1;exitY=0.5;exitDx=0;exitDy=0;entryX=0;entryY=0.5;entryDx=0;entryDy=0;labelBackgroundColor=default;strokeColor=#FFFFFF;align=center;verticalAlign=middle;fontFamily=Helvetica;fontSize=11;fontColor=default;endArrow=none;endFill=0;strokeWidth=2;" edge="1" parent="1" source="m7B9csSSpckp7PrpWBlc-4" target="m7B9csSSpckp7PrpWBlc-12">
          <mxGeometry relative="1" as="geometry" />
        </mxCell>
        <mxCell id="m7B9csSSpckp7PrpWBlc-29" style="edgeStyle=none;shape=connector;rounded=0;orthogonalLoop=1;jettySize=auto;html=1;exitX=1;exitY=0.5;exitDx=0;exitDy=0;entryX=0;entryY=0.5;entryDx=0;entryDy=0;labelBackgroundColor=default;strokeColor=#FFFFFF;align=center;verticalAlign=middle;fontFamily=Helvetica;fontSize=11;fontColor=default;endArrow=none;endFill=0;strokeWidth=2;" edge="1" parent="1" source="m7B9csSSpckp7PrpWBlc-4" target="m7B9csSSpckp7PrpWBlc-10">
          <mxGeometry relative="1" as="geometry" />
        </mxCell>
        <mxCell id="m7B9csSSpckp7PrpWBlc-4" value="&lt;i&gt;&lt;font face=&quot;Times New Roman&quot;&gt;v&lt;sub&gt;4&lt;/sub&gt;&lt;/font&gt;&lt;/i&gt;" style="ellipse;html=1;aspect=fixed;labelBackgroundColor=#000000;fontColor=#FFFFFF;fillColor=#000000;strokeColor=#00FF00;strokeWidth=2;" vertex="1" parent="1">
          <mxGeometry x="132" y="221" width="40" height="40" as="geometry" />
        </mxCell>
        <mxCell id="m7B9csSSpckp7PrpWBlc-24" style="edgeStyle=none;shape=connector;rounded=0;orthogonalLoop=1;jettySize=auto;html=1;exitX=1;exitY=0.5;exitDx=0;exitDy=0;entryX=0;entryY=0.5;entryDx=0;entryDy=0;labelBackgroundColor=default;strokeColor=#FFFFFF;align=center;verticalAlign=middle;fontFamily=Helvetica;fontSize=11;fontColor=default;endArrow=none;endFill=0;strokeWidth=2;" edge="1" parent="1" source="m7B9csSSpckp7PrpWBlc-5" target="m7B9csSSpckp7PrpWBlc-9">
          <mxGeometry relative="1" as="geometry" />
        </mxCell>
        <mxCell id="m7B9csSSpckp7PrpWBlc-30" style="edgeStyle=none;shape=connector;rounded=0;orthogonalLoop=1;jettySize=auto;html=1;exitX=1;exitY=0.5;exitDx=0;exitDy=0;entryX=0;entryY=0.5;entryDx=0;entryDy=0;labelBackgroundColor=default;strokeColor=#FFFFFF;align=center;verticalAlign=middle;fontFamily=Helvetica;fontSize=11;fontColor=default;endArrow=none;endFill=0;strokeWidth=2;" edge="1" parent="1" source="m7B9csSSpckp7PrpWBlc-5" target="m7B9csSSpckp7PrpWBlc-12">
          <mxGeometry relative="1" as="geometry" />
        </mxCell>
        <mxCell id="m7B9csSSpckp7PrpWBlc-5" value="&lt;i&gt;&lt;font face=&quot;Times New Roman&quot;&gt;v&lt;sub&gt;5&lt;/sub&gt;&lt;/font&gt;&lt;/i&gt;" style="ellipse;html=1;aspect=fixed;labelBackgroundColor=#000000;fontColor=#FFFFFF;fillColor=#000000;strokeColor=#00FF00;strokeWidth=2;" vertex="1" parent="1">
          <mxGeometry x="132" y="271" width="40" height="40" as="geometry" />
        </mxCell>
        <mxCell id="m7B9csSSpckp7PrpWBlc-26" style="edgeStyle=none;shape=connector;rounded=0;orthogonalLoop=1;jettySize=auto;html=1;exitX=1;exitY=0.5;exitDx=0;exitDy=0;entryX=0;entryY=0.5;entryDx=0;entryDy=0;labelBackgroundColor=default;strokeColor=#FFFFFF;align=center;verticalAlign=middle;fontFamily=Helvetica;fontSize=11;fontColor=default;endArrow=none;endFill=0;strokeWidth=2;" edge="1" parent="1" source="m7B9csSSpckp7PrpWBlc-6" target="m7B9csSSpckp7PrpWBlc-10">
          <mxGeometry relative="1" as="geometry" />
        </mxCell>
        <mxCell id="m7B9csSSpckp7PrpWBlc-28" style="edgeStyle=none;shape=connector;rounded=0;orthogonalLoop=1;jettySize=auto;html=1;exitX=1;exitY=0.5;exitDx=0;exitDy=0;entryX=0;entryY=0.5;entryDx=0;entryDy=0;labelBackgroundColor=default;strokeColor=#FFFFFF;align=center;verticalAlign=middle;fontFamily=Helvetica;fontSize=11;fontColor=default;endArrow=none;endFill=0;strokeWidth=2;" edge="1" parent="1" source="m7B9csSSpckp7PrpWBlc-6" target="m7B9csSSpckp7PrpWBlc-11">
          <mxGeometry relative="1" as="geometry" />
        </mxCell>
        <mxCell id="m7B9csSSpckp7PrpWBlc-6" value="&lt;i&gt;&lt;font face=&quot;Times New Roman&quot;&gt;v&lt;sub&gt;6&lt;/sub&gt;&lt;/font&gt;&lt;/i&gt;" style="ellipse;html=1;aspect=fixed;labelBackgroundColor=#000000;fontColor=#FFFFFF;fillColor=#000000;strokeColor=#00FF00;strokeWidth=2;" vertex="1" parent="1">
          <mxGeometry x="132" y="321" width="40" height="40" as="geometry" />
        </mxCell>
        <mxCell id="m7B9csSSpckp7PrpWBlc-27" style="edgeStyle=none;shape=connector;rounded=0;orthogonalLoop=1;jettySize=auto;html=1;exitX=1;exitY=0.5;exitDx=0;exitDy=0;entryX=0;entryY=0.5;entryDx=0;entryDy=0;labelBackgroundColor=default;strokeColor=#FFFFFF;align=center;verticalAlign=middle;fontFamily=Helvetica;fontSize=11;fontColor=default;endArrow=none;endFill=0;strokeWidth=2;" edge="1" parent="1" source="m7B9csSSpckp7PrpWBlc-7" target="m7B9csSSpckp7PrpWBlc-12">
          <mxGeometry relative="1" as="geometry" />
        </mxCell>
        <mxCell id="m7B9csSSpckp7PrpWBlc-31" style="edgeStyle=none;shape=connector;rounded=0;orthogonalLoop=1;jettySize=auto;html=1;exitX=1;exitY=0.5;exitDx=0;exitDy=0;entryX=0;entryY=0.5;entryDx=0;entryDy=0;labelBackgroundColor=default;strokeColor=#FFFFFF;align=center;verticalAlign=middle;fontFamily=Helvetica;fontSize=11;fontColor=default;endArrow=none;endFill=0;strokeWidth=2;" edge="1" parent="1" source="m7B9csSSpckp7PrpWBlc-7" target="m7B9csSSpckp7PrpWBlc-9">
          <mxGeometry relative="1" as="geometry" />
        </mxCell>
        <mxCell id="m7B9csSSpckp7PrpWBlc-7" value="&lt;i&gt;&lt;font face=&quot;Times New Roman&quot;&gt;v&lt;sub&gt;7&lt;/sub&gt;&lt;/font&gt;&lt;/i&gt;" style="ellipse;html=1;aspect=fixed;labelBackgroundColor=#000000;fontColor=#FFFFFF;fillColor=#000000;strokeColor=#00FF00;strokeWidth=2;" vertex="1" parent="1">
          <mxGeometry x="132" y="371" width="40" height="40" as="geometry" />
        </mxCell>
        <mxCell id="m7B9csSSpckp7PrpWBlc-8" value="&lt;i&gt;&lt;font face=&quot;Times New Roman&quot;&gt;c&lt;sub&gt;1&lt;/sub&gt;&lt;/font&gt;&lt;/i&gt;" style="ellipse;html=1;aspect=fixed;labelBackgroundColor=#000000;fontColor=#FFFFFF;fillColor=#000000;strokeColor=#FFFFFF;strokeWidth=2;" vertex="1" parent="1">
          <mxGeometry x="282" y="121" width="40" height="40" as="geometry" />
        </mxCell>
        <mxCell id="m7B9csSSpckp7PrpWBlc-9" value="&lt;i&gt;&lt;font face=&quot;Times New Roman&quot;&gt;c&lt;sub&gt;2&lt;/sub&gt;&lt;/font&gt;&lt;/i&gt;" style="ellipse;html=1;aspect=fixed;labelBackgroundColor=#000000;fontColor=#FFFFFF;fillColor=#000000;strokeColor=#FFFFFF;strokeWidth=2;" vertex="1" parent="1">
          <mxGeometry x="282" y="171" width="40" height="40" as="geometry" />
        </mxCell>
        <mxCell id="m7B9csSSpckp7PrpWBlc-10" value="&lt;i&gt;&lt;font face=&quot;Times New Roman&quot;&gt;c&lt;sub&gt;3&lt;/sub&gt;&lt;/font&gt;&lt;/i&gt;" style="ellipse;html=1;aspect=fixed;labelBackgroundColor=#000000;fontColor=#FFFFFF;fillColor=#000000;strokeColor=#FFFFFF;strokeWidth=2;" vertex="1" parent="1">
          <mxGeometry x="282" y="221" width="40" height="40" as="geometry" />
        </mxCell>
        <mxCell id="m7B9csSSpckp7PrpWBlc-11" value="&lt;i&gt;&lt;font face=&quot;Times New Roman&quot;&gt;c&lt;sub&gt;4&lt;/sub&gt;&lt;/font&gt;&lt;/i&gt;" style="ellipse;html=1;aspect=fixed;labelBackgroundColor=#000000;fontColor=#FFFFFF;fillColor=#000000;strokeColor=#FFFFFF;strokeWidth=2;" vertex="1" parent="1">
          <mxGeometry x="282" y="271" width="40" height="40" as="geometry" />
        </mxCell>
        <mxCell id="m7B9csSSpckp7PrpWBlc-12" value="&lt;i&gt;&lt;font face=&quot;Times New Roman&quot;&gt;c&lt;sub&gt;5&lt;/sub&gt;&lt;/font&gt;&lt;/i&gt;" style="ellipse;html=1;aspect=fixed;labelBackgroundColor=#000000;fontColor=#FFFFFF;fillColor=#000000;strokeColor=#FFFFFF;strokeWidth=2;" vertex="1" parent="1">
          <mxGeometry x="282" y="321" width="40" height="40" as="geometry" />
        </mxCell>
        <mxCell id="m7B9csSSpckp7PrpWBlc-32" style="edgeStyle=none;rounded=0;orthogonalLoop=1;jettySize=auto;html=1;exitX=1;exitY=0.5;exitDx=0;exitDy=0;entryX=0;entryY=0.5;entryDx=0;entryDy=0;strokeColor=#FFFFFF;endArrow=none;endFill=0;strokeWidth=2;" edge="1" parent="1" source="m7B9csSSpckp7PrpWBlc-43" target="m7B9csSSpckp7PrpWBlc-53">
          <mxGeometry relative="1" as="geometry" />
        </mxCell>
        <mxCell id="m7B9csSSpckp7PrpWBlc-33" style="edgeStyle=none;shape=connector;rounded=0;orthogonalLoop=1;jettySize=auto;html=1;exitX=1;exitY=0.5;exitDx=0;exitDy=0;entryX=0;entryY=0.5;entryDx=0;entryDy=0;labelBackgroundColor=default;strokeColor=#FFFFFF;align=center;verticalAlign=middle;fontFamily=Helvetica;fontSize=11;fontColor=default;endArrow=none;endFill=0;strokeWidth=2;" edge="1" parent="1" source="m7B9csSSpckp7PrpWBlc-35" target="m7B9csSSpckp7PrpWBlc-54">
          <mxGeometry relative="1" as="geometry" />
        </mxCell>
        <mxCell id="m7B9csSSpckp7PrpWBlc-34" style="edgeStyle=none;shape=connector;rounded=0;orthogonalLoop=1;jettySize=auto;html=1;exitX=1;exitY=0.5;exitDx=0;exitDy=0;entryX=0;entryY=0.5;entryDx=0;entryDy=0;labelBackgroundColor=default;strokeColor=#FFFFFF;align=center;verticalAlign=middle;fontFamily=Helvetica;fontSize=11;fontColor=default;endArrow=none;endFill=0;strokeWidth=2;" edge="1" parent="1" source="m7B9csSSpckp7PrpWBlc-35" target="m7B9csSSpckp7PrpWBlc-55">
          <mxGeometry relative="1" as="geometry" />
        </mxCell>
        <mxCell id="m7B9csSSpckp7PrpWBlc-35" value="&lt;i&gt;&lt;font face=&quot;Times New Roman&quot;&gt;v&lt;sub&gt;1&lt;/sub&gt;&lt;/font&gt;&lt;/i&gt;" style="ellipse;html=1;aspect=fixed;labelBackgroundColor=#000000;fontColor=#FFFFFF;fillColor=#000000;strokeColor=#FFFFFF;strokeWidth=2;" vertex="1" parent="1">
          <mxGeometry x="472" y="71" width="40" height="40" as="geometry" />
        </mxCell>
        <mxCell id="m7B9csSSpckp7PrpWBlc-36" style="edgeStyle=none;shape=connector;rounded=0;orthogonalLoop=1;jettySize=auto;html=1;exitX=1;exitY=0.5;exitDx=0;exitDy=0;labelBackgroundColor=default;strokeColor=#FFFFFF;align=center;verticalAlign=middle;fontFamily=Helvetica;fontSize=11;fontColor=default;endArrow=none;endFill=0;strokeWidth=2;" edge="1" parent="1" source="m7B9csSSpckp7PrpWBlc-38" target="m7B9csSSpckp7PrpWBlc-53">
          <mxGeometry relative="1" as="geometry" />
        </mxCell>
        <mxCell id="m7B9csSSpckp7PrpWBlc-37" style="edgeStyle=none;shape=connector;rounded=0;orthogonalLoop=1;jettySize=auto;html=1;exitX=1;exitY=0.5;exitDx=0;exitDy=0;labelBackgroundColor=default;strokeColor=#FFFFFF;align=center;verticalAlign=middle;fontFamily=Helvetica;fontSize=11;fontColor=default;endArrow=none;endFill=0;entryX=0;entryY=0.5;entryDx=0;entryDy=0;strokeWidth=2;" edge="1" parent="1" source="m7B9csSSpckp7PrpWBlc-38" target="m7B9csSSpckp7PrpWBlc-55">
          <mxGeometry relative="1" as="geometry">
            <mxPoint x="618" y="239.1428571428571" as="targetPoint" />
          </mxGeometry>
        </mxCell>
        <mxCell id="m7B9csSSpckp7PrpWBlc-38" value="&lt;i&gt;&lt;font face=&quot;Times New Roman&quot;&gt;v&lt;sub&gt;2&lt;/sub&gt;&lt;/font&gt;&lt;/i&gt;" style="ellipse;html=1;aspect=fixed;labelBackgroundColor=#000000;fontColor=#FFFFFF;fillColor=#000000;strokeColor=#FFFFFF;strokeWidth=2;" vertex="1" parent="1">
          <mxGeometry x="472" y="121" width="40" height="40" as="geometry" />
        </mxCell>
        <mxCell id="m7B9csSSpckp7PrpWBlc-39" style="edgeStyle=none;shape=connector;rounded=0;orthogonalLoop=1;jettySize=auto;html=1;exitX=1;exitY=0.5;exitDx=0;exitDy=0;entryX=0;entryY=0.5;entryDx=0;entryDy=0;labelBackgroundColor=default;strokeColor=#FFFFFF;align=center;verticalAlign=middle;fontFamily=Helvetica;fontSize=11;fontColor=default;endArrow=none;endFill=0;strokeWidth=2;" edge="1" parent="1" source="m7B9csSSpckp7PrpWBlc-40" target="m7B9csSSpckp7PrpWBlc-53">
          <mxGeometry relative="1" as="geometry" />
        </mxCell>
        <mxCell id="m7B9csSSpckp7PrpWBlc-40" value="&lt;i&gt;&lt;font face=&quot;Times New Roman&quot;&gt;v&lt;sub&gt;3&lt;/sub&gt;&lt;/font&gt;&lt;/i&gt;" style="ellipse;html=1;aspect=fixed;labelBackgroundColor=#000000;fontColor=#FFFFFF;fillColor=#000000;strokeColor=#FFFFFF;strokeWidth=2;" vertex="1" parent="1">
          <mxGeometry x="472" y="171" width="40" height="40" as="geometry" />
        </mxCell>
        <mxCell id="m7B9csSSpckp7PrpWBlc-41" style="edgeStyle=none;shape=connector;rounded=0;orthogonalLoop=1;jettySize=auto;html=1;exitX=1;exitY=0.5;exitDx=0;exitDy=0;entryX=0;entryY=0.5;entryDx=0;entryDy=0;labelBackgroundColor=default;strokeColor=#FFFFFF;align=center;verticalAlign=middle;fontFamily=Helvetica;fontSize=11;fontColor=default;endArrow=none;endFill=0;strokeWidth=2;" edge="1" parent="1" source="m7B9csSSpckp7PrpWBlc-43" target="m7B9csSSpckp7PrpWBlc-57">
          <mxGeometry relative="1" as="geometry" />
        </mxCell>
        <mxCell id="m7B9csSSpckp7PrpWBlc-42" style="edgeStyle=none;shape=connector;rounded=0;orthogonalLoop=1;jettySize=auto;html=1;exitX=1;exitY=0.5;exitDx=0;exitDy=0;entryX=0;entryY=0.5;entryDx=0;entryDy=0;labelBackgroundColor=default;strokeColor=#FFFFFF;align=center;verticalAlign=middle;fontFamily=Helvetica;fontSize=11;fontColor=default;endArrow=none;endFill=0;strokeWidth=2;" edge="1" parent="1" source="m7B9csSSpckp7PrpWBlc-43" target="m7B9csSSpckp7PrpWBlc-55">
          <mxGeometry relative="1" as="geometry" />
        </mxCell>
        <mxCell id="m7B9csSSpckp7PrpWBlc-43" value="&lt;i&gt;&lt;font face=&quot;Times New Roman&quot;&gt;v&lt;sub&gt;4&lt;/sub&gt;&lt;/font&gt;&lt;/i&gt;" style="ellipse;html=1;aspect=fixed;labelBackgroundColor=#000000;fontColor=#FFFFFF;fillColor=#000000;strokeColor=#FF8000;strokeWidth=2;" vertex="1" parent="1">
          <mxGeometry x="472" y="221" width="40" height="40" as="geometry" />
        </mxCell>
        <mxCell id="m7B9csSSpckp7PrpWBlc-44" style="edgeStyle=none;shape=connector;rounded=0;orthogonalLoop=1;jettySize=auto;html=1;exitX=1;exitY=0.5;exitDx=0;exitDy=0;entryX=0;entryY=0.5;entryDx=0;entryDy=0;labelBackgroundColor=default;strokeColor=#FFFFFF;align=center;verticalAlign=middle;fontFamily=Helvetica;fontSize=11;fontColor=default;endArrow=none;endFill=0;strokeWidth=2;" edge="1" parent="1" source="m7B9csSSpckp7PrpWBlc-46" target="m7B9csSSpckp7PrpWBlc-54">
          <mxGeometry relative="1" as="geometry" />
        </mxCell>
        <mxCell id="m7B9csSSpckp7PrpWBlc-45" style="edgeStyle=none;shape=connector;rounded=0;orthogonalLoop=1;jettySize=auto;html=1;exitX=1;exitY=0.5;exitDx=0;exitDy=0;entryX=0;entryY=0.5;entryDx=0;entryDy=0;labelBackgroundColor=default;strokeColor=#FFFFFF;align=center;verticalAlign=middle;fontFamily=Helvetica;fontSize=11;fontColor=default;endArrow=none;endFill=0;strokeWidth=2;" edge="1" parent="1" source="m7B9csSSpckp7PrpWBlc-46" target="m7B9csSSpckp7PrpWBlc-57">
          <mxGeometry relative="1" as="geometry" />
        </mxCell>
        <mxCell id="m7B9csSSpckp7PrpWBlc-46" value="&lt;i&gt;&lt;font face=&quot;Times New Roman&quot;&gt;v&lt;sub&gt;5&lt;/sub&gt;&lt;/font&gt;&lt;/i&gt;" style="ellipse;html=1;aspect=fixed;labelBackgroundColor=#000000;fontColor=#FFFFFF;fillColor=#000000;strokeColor=#00FF00;strokeWidth=2;" vertex="1" parent="1">
          <mxGeometry x="472" y="271" width="40" height="40" as="geometry" />
        </mxCell>
        <mxCell id="m7B9csSSpckp7PrpWBlc-47" style="edgeStyle=none;shape=connector;rounded=0;orthogonalLoop=1;jettySize=auto;html=1;exitX=1;exitY=0.5;exitDx=0;exitDy=0;entryX=0;entryY=0.5;entryDx=0;entryDy=0;labelBackgroundColor=default;strokeColor=#FFFFFF;align=center;verticalAlign=middle;fontFamily=Helvetica;fontSize=11;fontColor=default;endArrow=none;endFill=0;strokeWidth=2;" edge="1" parent="1" source="m7B9csSSpckp7PrpWBlc-49" target="m7B9csSSpckp7PrpWBlc-55">
          <mxGeometry relative="1" as="geometry" />
        </mxCell>
        <mxCell id="m7B9csSSpckp7PrpWBlc-48" style="edgeStyle=none;shape=connector;rounded=0;orthogonalLoop=1;jettySize=auto;html=1;exitX=1;exitY=0.5;exitDx=0;exitDy=0;entryX=0;entryY=0.5;entryDx=0;entryDy=0;labelBackgroundColor=default;strokeColor=#FFFFFF;align=center;verticalAlign=middle;fontFamily=Helvetica;fontSize=11;fontColor=default;endArrow=none;endFill=0;strokeWidth=2;" edge="1" parent="1" source="m7B9csSSpckp7PrpWBlc-49" target="m7B9csSSpckp7PrpWBlc-56">
          <mxGeometry relative="1" as="geometry" />
        </mxCell>
        <mxCell id="m7B9csSSpckp7PrpWBlc-49" value="&lt;i&gt;&lt;font face=&quot;Times New Roman&quot;&gt;v&lt;sub&gt;6&lt;/sub&gt;&lt;/font&gt;&lt;/i&gt;" style="ellipse;html=1;aspect=fixed;labelBackgroundColor=#000000;fontColor=#FFFFFF;fillColor=#000000;strokeColor=#00FF00;strokeWidth=2;" vertex="1" parent="1">
          <mxGeometry x="472" y="321" width="40" height="40" as="geometry" />
        </mxCell>
        <mxCell id="m7B9csSSpckp7PrpWBlc-50" style="edgeStyle=none;shape=connector;rounded=0;orthogonalLoop=1;jettySize=auto;html=1;exitX=1;exitY=0.5;exitDx=0;exitDy=0;entryX=0;entryY=0.5;entryDx=0;entryDy=0;labelBackgroundColor=default;strokeColor=#FFFFFF;align=center;verticalAlign=middle;fontFamily=Helvetica;fontSize=11;fontColor=default;endArrow=none;endFill=0;strokeWidth=2;" edge="1" parent="1" source="m7B9csSSpckp7PrpWBlc-52" target="m7B9csSSpckp7PrpWBlc-57">
          <mxGeometry relative="1" as="geometry" />
        </mxCell>
        <mxCell id="m7B9csSSpckp7PrpWBlc-51" style="edgeStyle=none;shape=connector;rounded=0;orthogonalLoop=1;jettySize=auto;html=1;exitX=1;exitY=0.5;exitDx=0;exitDy=0;entryX=0;entryY=0.5;entryDx=0;entryDy=0;labelBackgroundColor=default;strokeColor=#FFFFFF;align=center;verticalAlign=middle;fontFamily=Helvetica;fontSize=11;fontColor=default;endArrow=none;endFill=0;strokeWidth=2;" edge="1" parent="1" source="m7B9csSSpckp7PrpWBlc-52" target="m7B9csSSpckp7PrpWBlc-54">
          <mxGeometry relative="1" as="geometry" />
        </mxCell>
        <mxCell id="m7B9csSSpckp7PrpWBlc-52" value="&lt;i&gt;&lt;font face=&quot;Times New Roman&quot;&gt;v&lt;sub&gt;7&lt;/sub&gt;&lt;/font&gt;&lt;/i&gt;" style="ellipse;html=1;aspect=fixed;labelBackgroundColor=#000000;fontColor=#FFFFFF;fillColor=#000000;strokeColor=#00FF00;strokeWidth=2;" vertex="1" parent="1">
          <mxGeometry x="472" y="371" width="40" height="40" as="geometry" />
        </mxCell>
        <mxCell id="m7B9csSSpckp7PrpWBlc-53" value="&lt;i&gt;&lt;font face=&quot;Times New Roman&quot;&gt;c&lt;sub&gt;1&lt;/sub&gt;&lt;/font&gt;&lt;/i&gt;" style="ellipse;html=1;aspect=fixed;labelBackgroundColor=#000000;fontColor=#FFFFFF;fillColor=#000000;strokeColor=#FFFFFF;strokeWidth=2;" vertex="1" parent="1">
          <mxGeometry x="622" y="121" width="40" height="40" as="geometry" />
        </mxCell>
        <mxCell id="m7B9csSSpckp7PrpWBlc-54" value="&lt;i&gt;&lt;font face=&quot;Times New Roman&quot;&gt;c&lt;sub&gt;2&lt;/sub&gt;&lt;/font&gt;&lt;/i&gt;" style="ellipse;html=1;aspect=fixed;labelBackgroundColor=#000000;fontColor=#FFFFFF;fillColor=#000000;strokeColor=#FFFFFF;strokeWidth=2;" vertex="1" parent="1">
          <mxGeometry x="622" y="171" width="40" height="40" as="geometry" />
        </mxCell>
        <mxCell id="m7B9csSSpckp7PrpWBlc-55" value="&lt;i&gt;&lt;font face=&quot;Times New Roman&quot;&gt;c&lt;sub&gt;3&lt;/sub&gt;&lt;/font&gt;&lt;/i&gt;" style="ellipse;html=1;aspect=fixed;labelBackgroundColor=#000000;fontColor=#FFFFFF;fillColor=#000000;strokeColor=#FFFFFF;strokeWidth=2;" vertex="1" parent="1">
          <mxGeometry x="622" y="221" width="40" height="40" as="geometry" />
        </mxCell>
        <mxCell id="m7B9csSSpckp7PrpWBlc-56" value="&lt;i&gt;&lt;font face=&quot;Times New Roman&quot;&gt;c&lt;sub&gt;4&lt;/sub&gt;&lt;/font&gt;&lt;/i&gt;" style="ellipse;html=1;aspect=fixed;labelBackgroundColor=#000000;fontColor=#FFFFFF;fillColor=#000000;strokeColor=#FFFFFF;strokeWidth=2;" vertex="1" parent="1">
          <mxGeometry x="622" y="271" width="40" height="40" as="geometry" />
        </mxCell>
        <mxCell id="m7B9csSSpckp7PrpWBlc-57" value="&lt;i&gt;&lt;font face=&quot;Times New Roman&quot;&gt;c&lt;sub&gt;5&lt;/sub&gt;&lt;/font&gt;&lt;/i&gt;" style="ellipse;html=1;aspect=fixed;labelBackgroundColor=#000000;fontColor=#FFFFFF;fillColor=#000000;strokeColor=#FFFFFF;strokeWidth=2;" vertex="1" parent="1">
          <mxGeometry x="622" y="321" width="40" height="40" as="geometry" />
        </mxCell>
        <mxCell id="m7B9csSSpckp7PrpWBlc-58" value="" style="shape=flexArrow;endArrow=classic;html=1;rounded=0;labelBackgroundColor=default;strokeColor=#FFFFFF;align=center;verticalAlign=middle;fontFamily=Helvetica;fontSize=11;fontColor=default;edgeStyle=none;endWidth=25.30612244897959;endSize=6.405714285714287;width=21.714285714285715;strokeWidth=2;" edge="1" parent="1">
          <mxGeometry width="50" height="50" relative="1" as="geometry">
            <mxPoint x="347" y="243" as="sourcePoint" />
            <mxPoint x="441" y="245" as="targetPoint" />
          </mxGeometry>
        </mxCell>
        <mxCell id="m7B9csSSpckp7PrpWBlc-59" value="&lt;font face=&quot;Times New Roman&quot;&gt;select&amp;nbsp;&lt;/font&gt;&amp;nbsp;&lt;i style=&quot;border-color: var(--border-color); font-size: 12px;&quot;&gt;&lt;font style=&quot;border-color: var(--border-color);&quot; face=&quot;Times New Roman&quot;&gt;v&lt;sub style=&quot;border-color: var(--border-color);&quot;&gt;4&lt;/sub&gt;&lt;/font&gt;&lt;/i&gt;&amp;nbsp;" style="edgeLabel;html=1;align=center;verticalAlign=bottom;resizable=0;points=[];fontSize=11;fontFamily=Helvetica;fontColor=#FFFFFF;labelBackgroundColor=#000000;" vertex="1" connectable="0" parent="m7B9csSSpckp7PrpWBlc-58">
          <mxGeometry x="0.049" y="-2" relative="1" as="geometry">
            <mxPoint x="-5" y="8" as="offset" />
          </mxGeometry>
        </mxCell>
        <mxCell id="m7B9csSSpckp7PrpWBlc-60" style="edgeStyle=none;rounded=0;orthogonalLoop=1;jettySize=auto;html=1;exitX=1;exitY=0.5;exitDx=0;exitDy=0;entryX=0;entryY=0.5;entryDx=0;entryDy=0;strokeColor=#FFFFFF;endArrow=none;endFill=0;strokeWidth=2;" edge="1" parent="1" source="m7B9csSSpckp7PrpWBlc-71" target="m7B9csSSpckp7PrpWBlc-81">
          <mxGeometry relative="1" as="geometry" />
        </mxCell>
        <mxCell id="m7B9csSSpckp7PrpWBlc-61" style="edgeStyle=none;shape=connector;rounded=0;orthogonalLoop=1;jettySize=auto;html=1;exitX=1;exitY=0.5;exitDx=0;exitDy=0;entryX=0;entryY=0.5;entryDx=0;entryDy=0;labelBackgroundColor=default;strokeColor=#FFFFFF;align=center;verticalAlign=middle;fontFamily=Helvetica;fontSize=11;fontColor=default;endArrow=none;endFill=0;strokeWidth=2;" edge="1" parent="1" source="m7B9csSSpckp7PrpWBlc-63" target="m7B9csSSpckp7PrpWBlc-82">
          <mxGeometry relative="1" as="geometry" />
        </mxCell>
        <mxCell id="m7B9csSSpckp7PrpWBlc-62" style="edgeStyle=none;shape=connector;rounded=0;orthogonalLoop=1;jettySize=auto;html=1;exitX=1;exitY=0.5;exitDx=0;exitDy=0;entryX=0;entryY=0.5;entryDx=0;entryDy=0;labelBackgroundColor=default;strokeColor=#FFFFFF;align=center;verticalAlign=middle;fontFamily=Helvetica;fontSize=11;fontColor=default;endArrow=none;endFill=0;strokeWidth=2;" edge="1" parent="1" source="m7B9csSSpckp7PrpWBlc-63" target="m7B9csSSpckp7PrpWBlc-83">
          <mxGeometry relative="1" as="geometry" />
        </mxCell>
        <mxCell id="m7B9csSSpckp7PrpWBlc-63" value="&lt;i&gt;&lt;font face=&quot;Times New Roman&quot;&gt;v&lt;sub&gt;1&lt;/sub&gt;&lt;/font&gt;&lt;/i&gt;" style="ellipse;html=1;aspect=fixed;labelBackgroundColor=#000000;fontColor=#FFFFFF;fillColor=#000000;strokeColor=#FFFFFF;strokeWidth=2;" vertex="1" parent="1">
          <mxGeometry x="132" y="447" width="40" height="40" as="geometry" />
        </mxCell>
        <mxCell id="m7B9csSSpckp7PrpWBlc-64" style="edgeStyle=none;shape=connector;rounded=0;orthogonalLoop=1;jettySize=auto;html=1;exitX=1;exitY=0.5;exitDx=0;exitDy=0;labelBackgroundColor=default;strokeColor=#FFFFFF;align=center;verticalAlign=middle;fontFamily=Helvetica;fontSize=11;fontColor=default;endArrow=none;endFill=0;strokeWidth=2;" edge="1" parent="1" source="m7B9csSSpckp7PrpWBlc-66" target="m7B9csSSpckp7PrpWBlc-81">
          <mxGeometry relative="1" as="geometry" />
        </mxCell>
        <mxCell id="m7B9csSSpckp7PrpWBlc-65" style="edgeStyle=none;shape=connector;rounded=0;orthogonalLoop=1;jettySize=auto;html=1;exitX=1;exitY=0.5;exitDx=0;exitDy=0;labelBackgroundColor=default;strokeColor=#FFFFFF;align=center;verticalAlign=middle;fontFamily=Helvetica;fontSize=11;fontColor=default;endArrow=none;endFill=0;entryX=0;entryY=0.5;entryDx=0;entryDy=0;strokeWidth=2;" edge="1" parent="1" source="m7B9csSSpckp7PrpWBlc-66" target="m7B9csSSpckp7PrpWBlc-83">
          <mxGeometry relative="1" as="geometry">
            <mxPoint x="278" y="615.1428571428571" as="targetPoint" />
          </mxGeometry>
        </mxCell>
        <mxCell id="m7B9csSSpckp7PrpWBlc-66" value="&lt;i&gt;&lt;font face=&quot;Times New Roman&quot;&gt;v&lt;sub&gt;2&lt;/sub&gt;&lt;/font&gt;&lt;/i&gt;" style="ellipse;html=1;aspect=fixed;labelBackgroundColor=#000000;fontColor=#FFFFFF;fillColor=#000000;strokeColor=#FFFFFF;strokeWidth=2;" vertex="1" parent="1">
          <mxGeometry x="132" y="497" width="40" height="40" as="geometry" />
        </mxCell>
        <mxCell id="m7B9csSSpckp7PrpWBlc-67" style="edgeStyle=none;shape=connector;rounded=0;orthogonalLoop=1;jettySize=auto;html=1;exitX=1;exitY=0.5;exitDx=0;exitDy=0;entryX=0;entryY=0.5;entryDx=0;entryDy=0;labelBackgroundColor=default;strokeColor=#FFFFFF;align=center;verticalAlign=middle;fontFamily=Helvetica;fontSize=11;fontColor=default;endArrow=none;endFill=0;strokeWidth=2;" edge="1" parent="1" source="m7B9csSSpckp7PrpWBlc-68" target="m7B9csSSpckp7PrpWBlc-81">
          <mxGeometry relative="1" as="geometry" />
        </mxCell>
        <mxCell id="m7B9csSSpckp7PrpWBlc-68" value="&lt;i&gt;&lt;font face=&quot;Times New Roman&quot;&gt;v&lt;sub&gt;3&lt;/sub&gt;&lt;/font&gt;&lt;/i&gt;" style="ellipse;html=1;aspect=fixed;labelBackgroundColor=#000000;fontColor=#FFFFFF;fillColor=#000000;strokeColor=#FFFFFF;strokeWidth=2;" vertex="1" parent="1">
          <mxGeometry x="132" y="547" width="40" height="40" as="geometry" />
        </mxCell>
        <mxCell id="m7B9csSSpckp7PrpWBlc-69" style="edgeStyle=none;shape=connector;rounded=0;orthogonalLoop=1;jettySize=auto;html=1;exitX=1;exitY=0.5;exitDx=0;exitDy=0;entryX=0;entryY=0.5;entryDx=0;entryDy=0;labelBackgroundColor=default;strokeColor=#FFFFFF;align=center;verticalAlign=middle;fontFamily=Helvetica;fontSize=11;fontColor=default;endArrow=none;endFill=0;strokeWidth=2;" edge="1" parent="1" source="m7B9csSSpckp7PrpWBlc-71" target="m7B9csSSpckp7PrpWBlc-85">
          <mxGeometry relative="1" as="geometry" />
        </mxCell>
        <mxCell id="m7B9csSSpckp7PrpWBlc-70" style="edgeStyle=none;shape=connector;rounded=0;orthogonalLoop=1;jettySize=auto;html=1;exitX=1;exitY=0.5;exitDx=0;exitDy=0;entryX=0;entryY=0.5;entryDx=0;entryDy=0;labelBackgroundColor=default;strokeColor=#FFFFFF;align=center;verticalAlign=middle;fontFamily=Helvetica;fontSize=11;fontColor=default;endArrow=none;endFill=0;strokeWidth=2;" edge="1" parent="1" source="m7B9csSSpckp7PrpWBlc-71" target="m7B9csSSpckp7PrpWBlc-83">
          <mxGeometry relative="1" as="geometry" />
        </mxCell>
        <mxCell id="m7B9csSSpckp7PrpWBlc-71" value="&lt;i&gt;&lt;font face=&quot;Times New Roman&quot;&gt;v&lt;sub&gt;4&lt;/sub&gt;&lt;/font&gt;&lt;/i&gt;" style="ellipse;html=1;aspect=fixed;labelBackgroundColor=#000000;fontColor=#FFFFFF;fillColor=#000000;strokeColor=#FF8000;strokeWidth=2;" vertex="1" parent="1">
          <mxGeometry x="132" y="597" width="40" height="40" as="geometry" />
        </mxCell>
        <mxCell id="m7B9csSSpckp7PrpWBlc-72" style="edgeStyle=none;shape=connector;rounded=0;orthogonalLoop=1;jettySize=auto;html=1;exitX=1;exitY=0.5;exitDx=0;exitDy=0;entryX=0;entryY=0.5;entryDx=0;entryDy=0;labelBackgroundColor=default;strokeColor=#FFFFFF;align=center;verticalAlign=middle;fontFamily=Helvetica;fontSize=11;fontColor=default;endArrow=none;endFill=0;strokeWidth=2;" edge="1" parent="1" source="m7B9csSSpckp7PrpWBlc-74" target="m7B9csSSpckp7PrpWBlc-82">
          <mxGeometry relative="1" as="geometry" />
        </mxCell>
        <mxCell id="m7B9csSSpckp7PrpWBlc-73" style="edgeStyle=none;shape=connector;rounded=0;orthogonalLoop=1;jettySize=auto;html=1;exitX=1;exitY=0.5;exitDx=0;exitDy=0;entryX=0;entryY=0.5;entryDx=0;entryDy=0;labelBackgroundColor=default;strokeColor=#FFFFFF;align=center;verticalAlign=middle;fontFamily=Helvetica;fontSize=11;fontColor=default;endArrow=none;endFill=0;strokeWidth=2;" edge="1" parent="1" source="m7B9csSSpckp7PrpWBlc-74" target="m7B9csSSpckp7PrpWBlc-85">
          <mxGeometry relative="1" as="geometry" />
        </mxCell>
        <mxCell id="m7B9csSSpckp7PrpWBlc-74" value="&lt;i&gt;&lt;font face=&quot;Times New Roman&quot;&gt;v&lt;sub&gt;5&lt;/sub&gt;&lt;/font&gt;&lt;/i&gt;" style="ellipse;html=1;aspect=fixed;labelBackgroundColor=#000000;fontColor=#FFFFFF;fillColor=#000000;strokeColor=#00FF00;strokeWidth=2;" vertex="1" parent="1">
          <mxGeometry x="132" y="647" width="40" height="40" as="geometry" />
        </mxCell>
        <mxCell id="m7B9csSSpckp7PrpWBlc-75" style="edgeStyle=none;shape=connector;rounded=0;orthogonalLoop=1;jettySize=auto;html=1;exitX=1;exitY=0.5;exitDx=0;exitDy=0;entryX=0;entryY=0.5;entryDx=0;entryDy=0;labelBackgroundColor=default;strokeColor=#FFFFFF;align=center;verticalAlign=middle;fontFamily=Helvetica;fontSize=11;fontColor=default;endArrow=none;endFill=0;strokeWidth=2;" edge="1" parent="1" source="m7B9csSSpckp7PrpWBlc-77" target="m7B9csSSpckp7PrpWBlc-83">
          <mxGeometry relative="1" as="geometry" />
        </mxCell>
        <mxCell id="m7B9csSSpckp7PrpWBlc-76" style="edgeStyle=none;shape=connector;rounded=0;orthogonalLoop=1;jettySize=auto;html=1;exitX=1;exitY=0.5;exitDx=0;exitDy=0;entryX=0;entryY=0.5;entryDx=0;entryDy=0;labelBackgroundColor=default;strokeColor=#FFFFFF;align=center;verticalAlign=middle;fontFamily=Helvetica;fontSize=11;fontColor=default;endArrow=none;endFill=0;strokeWidth=2;" edge="1" parent="1" source="m7B9csSSpckp7PrpWBlc-77" target="m7B9csSSpckp7PrpWBlc-84">
          <mxGeometry relative="1" as="geometry" />
        </mxCell>
        <mxCell id="m7B9csSSpckp7PrpWBlc-77" value="&lt;i&gt;&lt;font face=&quot;Times New Roman&quot;&gt;v&lt;sub&gt;6&lt;/sub&gt;&lt;/font&gt;&lt;/i&gt;" style="ellipse;html=1;aspect=fixed;labelBackgroundColor=#000000;fontColor=#FFFFFF;fillColor=#000000;strokeColor=#00FF00;strokeWidth=2;" vertex="1" parent="1">
          <mxGeometry x="132" y="697" width="40" height="40" as="geometry" />
        </mxCell>
        <mxCell id="m7B9csSSpckp7PrpWBlc-78" style="edgeStyle=none;shape=connector;rounded=0;orthogonalLoop=1;jettySize=auto;html=1;exitX=1;exitY=0.5;exitDx=0;exitDy=0;entryX=0;entryY=0.5;entryDx=0;entryDy=0;labelBackgroundColor=default;strokeColor=#FFFFFF;align=center;verticalAlign=middle;fontFamily=Helvetica;fontSize=11;fontColor=default;endArrow=none;endFill=0;strokeWidth=2;" edge="1" parent="1" source="m7B9csSSpckp7PrpWBlc-80" target="m7B9csSSpckp7PrpWBlc-85">
          <mxGeometry relative="1" as="geometry" />
        </mxCell>
        <mxCell id="m7B9csSSpckp7PrpWBlc-79" style="edgeStyle=none;shape=connector;rounded=0;orthogonalLoop=1;jettySize=auto;html=1;exitX=1;exitY=0.5;exitDx=0;exitDy=0;entryX=0;entryY=0.5;entryDx=0;entryDy=0;labelBackgroundColor=default;strokeColor=#FFFFFF;align=center;verticalAlign=middle;fontFamily=Helvetica;fontSize=11;fontColor=default;endArrow=none;endFill=0;strokeWidth=2;" edge="1" parent="1" source="m7B9csSSpckp7PrpWBlc-80" target="m7B9csSSpckp7PrpWBlc-82">
          <mxGeometry relative="1" as="geometry" />
        </mxCell>
        <mxCell id="m7B9csSSpckp7PrpWBlc-80" value="&lt;i&gt;&lt;font face=&quot;Times New Roman&quot;&gt;v&lt;sub&gt;7&lt;/sub&gt;&lt;/font&gt;&lt;/i&gt;" style="ellipse;html=1;aspect=fixed;labelBackgroundColor=#000000;fontColor=#FFFFFF;fillColor=#000000;strokeColor=#00FF00;strokeWidth=2;" vertex="1" parent="1">
          <mxGeometry x="132" y="747" width="40" height="40" as="geometry" />
        </mxCell>
        <mxCell id="m7B9csSSpckp7PrpWBlc-81" value="&lt;i&gt;&lt;font face=&quot;Times New Roman&quot;&gt;c&lt;sub&gt;1&lt;/sub&gt;&lt;/font&gt;&lt;/i&gt;" style="ellipse;html=1;aspect=fixed;labelBackgroundColor=#000000;fontColor=#FFFFFF;fillColor=#000000;strokeColor=#FFFFFF;strokeWidth=2;" vertex="1" parent="1">
          <mxGeometry x="282" y="497" width="40" height="40" as="geometry" />
        </mxCell>
        <mxCell id="m7B9csSSpckp7PrpWBlc-82" value="&lt;i&gt;&lt;font face=&quot;Times New Roman&quot;&gt;c&lt;sub&gt;2&lt;/sub&gt;&lt;/font&gt;&lt;/i&gt;" style="ellipse;html=1;aspect=fixed;labelBackgroundColor=#000000;fontColor=#FFFFFF;fillColor=#000000;strokeColor=#FFFFFF;strokeWidth=2;" vertex="1" parent="1">
          <mxGeometry x="282" y="547" width="40" height="40" as="geometry" />
        </mxCell>
        <mxCell id="m7B9csSSpckp7PrpWBlc-89" style="edgeStyle=none;shape=connector;rounded=0;orthogonalLoop=1;jettySize=auto;html=1;exitX=0;exitY=0.5;exitDx=0;exitDy=0;entryX=1;entryY=0.5;entryDx=0;entryDy=0;labelBackgroundColor=default;strokeColor=#FFFFFF;align=center;verticalAlign=middle;fontFamily=Helvetica;fontSize=11;fontColor=default;endArrow=none;endFill=0;strokeWidth=2;" edge="1" parent="1" source="m7B9csSSpckp7PrpWBlc-83" target="m7B9csSSpckp7PrpWBlc-86">
          <mxGeometry relative="1" as="geometry" />
        </mxCell>
        <mxCell id="m7B9csSSpckp7PrpWBlc-83" value="&lt;i&gt;&lt;font face=&quot;Times New Roman&quot;&gt;c&lt;sub&gt;3&lt;/sub&gt;&lt;/font&gt;&lt;/i&gt;" style="ellipse;html=1;aspect=fixed;labelBackgroundColor=#000000;fontColor=#FFFFFF;fillColor=#000000;strokeColor=#FFFFFF;strokeWidth=2;" vertex="1" parent="1">
          <mxGeometry x="282" y="597" width="40" height="40" as="geometry" />
        </mxCell>
        <mxCell id="m7B9csSSpckp7PrpWBlc-90" style="edgeStyle=none;shape=connector;rounded=0;orthogonalLoop=1;jettySize=auto;html=1;exitX=0;exitY=0.5;exitDx=0;exitDy=0;labelBackgroundColor=default;strokeColor=#FFFFFF;align=center;verticalAlign=middle;fontFamily=Helvetica;fontSize=11;fontColor=default;endArrow=none;endFill=0;strokeWidth=2;" edge="1" parent="1" source="m7B9csSSpckp7PrpWBlc-84">
          <mxGeometry relative="1" as="geometry">
            <mxPoint x="172.5" y="817.6666666666667" as="targetPoint" />
          </mxGeometry>
        </mxCell>
        <mxCell id="m7B9csSSpckp7PrpWBlc-84" value="&lt;i&gt;&lt;font face=&quot;Times New Roman&quot;&gt;c&lt;sub&gt;4&lt;/sub&gt;&lt;/font&gt;&lt;/i&gt;" style="ellipse;html=1;aspect=fixed;labelBackgroundColor=#000000;fontColor=#FFFFFF;fillColor=#000000;strokeColor=#FFFFFF;strokeWidth=2;" vertex="1" parent="1">
          <mxGeometry x="282" y="647" width="40" height="40" as="geometry" />
        </mxCell>
        <mxCell id="m7B9csSSpckp7PrpWBlc-91" style="edgeStyle=none;shape=connector;rounded=0;orthogonalLoop=1;jettySize=auto;html=1;exitX=0;exitY=0.5;exitDx=0;exitDy=0;entryX=1;entryY=0.5;entryDx=0;entryDy=0;labelBackgroundColor=default;strokeColor=#FFFFFF;align=center;verticalAlign=middle;fontFamily=Helvetica;fontSize=11;fontColor=default;endArrow=none;endFill=0;strokeWidth=2;" edge="1" parent="1" source="m7B9csSSpckp7PrpWBlc-85" target="m7B9csSSpckp7PrpWBlc-86">
          <mxGeometry relative="1" as="geometry" />
        </mxCell>
        <mxCell id="m7B9csSSpckp7PrpWBlc-85" value="&lt;i&gt;&lt;font face=&quot;Times New Roman&quot;&gt;c&lt;sub&gt;5&lt;/sub&gt;&lt;/font&gt;&lt;/i&gt;" style="ellipse;html=1;aspect=fixed;labelBackgroundColor=#000000;fontColor=#FFFFFF;fillColor=#000000;strokeColor=#FFFFFF;strokeWidth=2;" vertex="1" parent="1">
          <mxGeometry x="282" y="697" width="40" height="40" as="geometry" />
        </mxCell>
        <mxCell id="m7B9csSSpckp7PrpWBlc-87" style="edgeStyle=none;shape=connector;rounded=0;orthogonalLoop=1;jettySize=auto;html=1;exitX=1;exitY=0.5;exitDx=0;exitDy=0;entryX=0;entryY=0.5;entryDx=0;entryDy=0;labelBackgroundColor=default;strokeColor=#FFFFFF;align=center;verticalAlign=middle;fontFamily=Helvetica;fontSize=11;fontColor=default;endArrow=none;endFill=0;strokeWidth=2;" edge="1" parent="1" source="m7B9csSSpckp7PrpWBlc-86" target="m7B9csSSpckp7PrpWBlc-81">
          <mxGeometry relative="1" as="geometry" />
        </mxCell>
        <mxCell id="m7B9csSSpckp7PrpWBlc-88" style="edgeStyle=none;shape=connector;rounded=0;orthogonalLoop=1;jettySize=auto;html=1;exitX=1;exitY=0.5;exitDx=0;exitDy=0;entryX=0;entryY=0.5;entryDx=0;entryDy=0;labelBackgroundColor=default;strokeColor=#FFFFFF;align=center;verticalAlign=middle;fontFamily=Helvetica;fontSize=11;fontColor=default;endArrow=none;endFill=0;strokeWidth=2;" edge="1" parent="1" source="m7B9csSSpckp7PrpWBlc-86" target="m7B9csSSpckp7PrpWBlc-82">
          <mxGeometry relative="1" as="geometry" />
        </mxCell>
        <mxCell id="m7B9csSSpckp7PrpWBlc-86" value="&lt;font style=&quot;&quot; face=&quot;Times New Roman&quot;&gt;STOP&lt;/font&gt;" style="ellipse;html=1;aspect=fixed;labelBackgroundColor=#000000;fontColor=#FFFFFF;fillColor=#000000;strokeColor=#3399FF;strokeWidth=2;" vertex="1" parent="1">
          <mxGeometry x="132" y="797" width="40" height="40" as="geometry" />
        </mxCell>
        <mxCell id="m7B9csSSpckp7PrpWBlc-92" style="edgeStyle=none;rounded=0;orthogonalLoop=1;jettySize=auto;html=1;exitX=1;exitY=0.5;exitDx=0;exitDy=0;entryX=0;entryY=0.5;entryDx=0;entryDy=0;strokeColor=#FFFFFF;endArrow=none;endFill=0;strokeWidth=2;" edge="1" parent="1" source="m7B9csSSpckp7PrpWBlc-103" target="m7B9csSSpckp7PrpWBlc-113">
          <mxGeometry relative="1" as="geometry" />
        </mxCell>
        <mxCell id="m7B9csSSpckp7PrpWBlc-93" style="edgeStyle=none;shape=connector;rounded=0;orthogonalLoop=1;jettySize=auto;html=1;exitX=1;exitY=0.5;exitDx=0;exitDy=0;entryX=0;entryY=0.5;entryDx=0;entryDy=0;labelBackgroundColor=default;strokeColor=#FFFFFF;align=center;verticalAlign=middle;fontFamily=Helvetica;fontSize=11;fontColor=default;endArrow=none;endFill=0;strokeWidth=2;" edge="1" parent="1" source="m7B9csSSpckp7PrpWBlc-95" target="m7B9csSSpckp7PrpWBlc-114">
          <mxGeometry relative="1" as="geometry" />
        </mxCell>
        <mxCell id="m7B9csSSpckp7PrpWBlc-94" style="edgeStyle=none;shape=connector;rounded=0;orthogonalLoop=1;jettySize=auto;html=1;exitX=1;exitY=0.5;exitDx=0;exitDy=0;entryX=0;entryY=0.5;entryDx=0;entryDy=0;labelBackgroundColor=default;strokeColor=#FFFFFF;align=center;verticalAlign=middle;fontFamily=Helvetica;fontSize=11;fontColor=default;endArrow=none;endFill=0;strokeWidth=2;" edge="1" parent="1" source="m7B9csSSpckp7PrpWBlc-95" target="m7B9csSSpckp7PrpWBlc-116">
          <mxGeometry relative="1" as="geometry" />
        </mxCell>
        <mxCell id="m7B9csSSpckp7PrpWBlc-95" value="&lt;i&gt;&lt;font face=&quot;Times New Roman&quot;&gt;v&lt;sub&gt;1&lt;/sub&gt;&lt;/font&gt;&lt;/i&gt;" style="ellipse;html=1;aspect=fixed;labelBackgroundColor=#000000;fontColor=#FFFFFF;fillColor=#000000;strokeColor=#FFFFFF;strokeWidth=2;" vertex="1" parent="1">
          <mxGeometry x="472" y="447" width="40" height="40" as="geometry" />
        </mxCell>
        <mxCell id="m7B9csSSpckp7PrpWBlc-96" style="edgeStyle=none;shape=connector;rounded=0;orthogonalLoop=1;jettySize=auto;html=1;exitX=1;exitY=0.5;exitDx=0;exitDy=0;labelBackgroundColor=default;strokeColor=#FFFFFF;align=center;verticalAlign=middle;fontFamily=Helvetica;fontSize=11;fontColor=default;endArrow=none;endFill=0;strokeWidth=2;" edge="1" parent="1" source="m7B9csSSpckp7PrpWBlc-98" target="m7B9csSSpckp7PrpWBlc-113">
          <mxGeometry relative="1" as="geometry" />
        </mxCell>
        <mxCell id="m7B9csSSpckp7PrpWBlc-97" style="edgeStyle=none;shape=connector;rounded=0;orthogonalLoop=1;jettySize=auto;html=1;exitX=1;exitY=0.5;exitDx=0;exitDy=0;labelBackgroundColor=default;strokeColor=#FFFFFF;align=center;verticalAlign=middle;fontFamily=Helvetica;fontSize=11;fontColor=default;endArrow=none;endFill=0;entryX=0;entryY=0.5;entryDx=0;entryDy=0;strokeWidth=2;" edge="1" parent="1" source="m7B9csSSpckp7PrpWBlc-98" target="m7B9csSSpckp7PrpWBlc-116">
          <mxGeometry relative="1" as="geometry">
            <mxPoint x="618" y="615.1428571428571" as="targetPoint" />
          </mxGeometry>
        </mxCell>
        <mxCell id="m7B9csSSpckp7PrpWBlc-98" value="&lt;i&gt;&lt;font face=&quot;Times New Roman&quot;&gt;v&lt;sub&gt;2&lt;/sub&gt;&lt;/font&gt;&lt;/i&gt;" style="ellipse;html=1;aspect=fixed;labelBackgroundColor=#000000;fontColor=#FFFFFF;fillColor=#000000;strokeColor=#FFFFFF;strokeWidth=2;" vertex="1" parent="1">
          <mxGeometry x="472" y="497" width="40" height="40" as="geometry" />
        </mxCell>
        <mxCell id="m7B9csSSpckp7PrpWBlc-99" style="edgeStyle=none;shape=connector;rounded=0;orthogonalLoop=1;jettySize=auto;html=1;exitX=1;exitY=0.5;exitDx=0;exitDy=0;entryX=0;entryY=0.5;entryDx=0;entryDy=0;labelBackgroundColor=default;strokeColor=#FFFFFF;align=center;verticalAlign=middle;fontFamily=Helvetica;fontSize=11;fontColor=default;endArrow=none;endFill=0;strokeWidth=2;" edge="1" parent="1" source="m7B9csSSpckp7PrpWBlc-100" target="m7B9csSSpckp7PrpWBlc-113">
          <mxGeometry relative="1" as="geometry" />
        </mxCell>
        <mxCell id="m7B9csSSpckp7PrpWBlc-100" value="&lt;i&gt;&lt;font face=&quot;Times New Roman&quot;&gt;v&lt;sub&gt;3&lt;/sub&gt;&lt;/font&gt;&lt;/i&gt;" style="ellipse;html=1;aspect=fixed;labelBackgroundColor=#000000;fontColor=#FFFFFF;fillColor=#000000;strokeColor=#FFFFFF;strokeWidth=2;" vertex="1" parent="1">
          <mxGeometry x="472" y="547" width="40" height="40" as="geometry" />
        </mxCell>
        <mxCell id="m7B9csSSpckp7PrpWBlc-101" style="edgeStyle=none;shape=connector;rounded=0;orthogonalLoop=1;jettySize=auto;html=1;exitX=1;exitY=0.5;exitDx=0;exitDy=0;entryX=0;entryY=0.5;entryDx=0;entryDy=0;labelBackgroundColor=default;strokeColor=#FFFFFF;align=center;verticalAlign=middle;fontFamily=Helvetica;fontSize=11;fontColor=default;endArrow=none;endFill=0;strokeWidth=2;" edge="1" parent="1" source="m7B9csSSpckp7PrpWBlc-103" target="m7B9csSSpckp7PrpWBlc-120">
          <mxGeometry relative="1" as="geometry" />
        </mxCell>
        <mxCell id="m7B9csSSpckp7PrpWBlc-102" style="edgeStyle=none;shape=connector;rounded=0;orthogonalLoop=1;jettySize=auto;html=1;exitX=1;exitY=0.5;exitDx=0;exitDy=0;entryX=0;entryY=0.5;entryDx=0;entryDy=0;labelBackgroundColor=default;strokeColor=#FFFFFF;align=center;verticalAlign=middle;fontFamily=Helvetica;fontSize=11;fontColor=default;endArrow=none;endFill=0;strokeWidth=2;" edge="1" parent="1" source="m7B9csSSpckp7PrpWBlc-103" target="m7B9csSSpckp7PrpWBlc-116">
          <mxGeometry relative="1" as="geometry" />
        </mxCell>
        <mxCell id="m7B9csSSpckp7PrpWBlc-103" value="&lt;i&gt;&lt;font face=&quot;Times New Roman&quot;&gt;v&lt;sub&gt;4&lt;/sub&gt;&lt;/font&gt;&lt;/i&gt;" style="ellipse;html=1;aspect=fixed;labelBackgroundColor=#000000;fontColor=#FFFFFF;fillColor=#000000;strokeColor=#FF8000;strokeWidth=2;" vertex="1" parent="1">
          <mxGeometry x="472" y="597" width="40" height="40" as="geometry" />
        </mxCell>
        <mxCell id="m7B9csSSpckp7PrpWBlc-104" style="edgeStyle=none;shape=connector;rounded=0;orthogonalLoop=1;jettySize=auto;html=1;exitX=1;exitY=0.5;exitDx=0;exitDy=0;entryX=0;entryY=0.5;entryDx=0;entryDy=0;labelBackgroundColor=default;strokeColor=#FFFFFF;align=center;verticalAlign=middle;fontFamily=Helvetica;fontSize=11;fontColor=default;endArrow=none;endFill=0;strokeWidth=2;" edge="1" parent="1" source="m7B9csSSpckp7PrpWBlc-106" target="m7B9csSSpckp7PrpWBlc-114">
          <mxGeometry relative="1" as="geometry" />
        </mxCell>
        <mxCell id="m7B9csSSpckp7PrpWBlc-105" style="edgeStyle=none;shape=connector;rounded=0;orthogonalLoop=1;jettySize=auto;html=1;exitX=1;exitY=0.5;exitDx=0;exitDy=0;entryX=0;entryY=0.5;entryDx=0;entryDy=0;labelBackgroundColor=default;strokeColor=#FFFFFF;align=center;verticalAlign=middle;fontFamily=Helvetica;fontSize=11;fontColor=default;endArrow=none;endFill=0;strokeWidth=2;" edge="1" parent="1" source="m7B9csSSpckp7PrpWBlc-106" target="m7B9csSSpckp7PrpWBlc-120">
          <mxGeometry relative="1" as="geometry" />
        </mxCell>
        <mxCell id="m7B9csSSpckp7PrpWBlc-106" value="&lt;i&gt;&lt;font face=&quot;Times New Roman&quot;&gt;v&lt;sub&gt;5&lt;/sub&gt;&lt;/font&gt;&lt;/i&gt;" style="ellipse;html=1;aspect=fixed;labelBackgroundColor=#000000;fontColor=#FFFFFF;fillColor=#000000;strokeColor=#00FF00;strokeWidth=2;" vertex="1" parent="1">
          <mxGeometry x="472" y="647" width="40" height="40" as="geometry" />
        </mxCell>
        <mxCell id="m7B9csSSpckp7PrpWBlc-107" style="edgeStyle=none;shape=connector;rounded=0;orthogonalLoop=1;jettySize=auto;html=1;exitX=1;exitY=0.5;exitDx=0;exitDy=0;entryX=0;entryY=0.5;entryDx=0;entryDy=0;labelBackgroundColor=default;strokeColor=#FFFFFF;align=center;verticalAlign=middle;fontFamily=Helvetica;fontSize=11;fontColor=default;endArrow=none;endFill=0;strokeWidth=2;" edge="1" parent="1" source="m7B9csSSpckp7PrpWBlc-109" target="m7B9csSSpckp7PrpWBlc-116">
          <mxGeometry relative="1" as="geometry" />
        </mxCell>
        <mxCell id="m7B9csSSpckp7PrpWBlc-108" style="edgeStyle=none;shape=connector;rounded=0;orthogonalLoop=1;jettySize=auto;html=1;exitX=1;exitY=0.5;exitDx=0;exitDy=0;entryX=0;entryY=0.5;entryDx=0;entryDy=0;labelBackgroundColor=default;strokeColor=#FFFFFF;align=center;verticalAlign=middle;fontFamily=Helvetica;fontSize=11;fontColor=default;endArrow=none;endFill=0;strokeWidth=2;" edge="1" parent="1" source="m7B9csSSpckp7PrpWBlc-109" target="m7B9csSSpckp7PrpWBlc-118">
          <mxGeometry relative="1" as="geometry" />
        </mxCell>
        <mxCell id="m7B9csSSpckp7PrpWBlc-109" value="&lt;i&gt;&lt;font face=&quot;Times New Roman&quot;&gt;v&lt;sub&gt;6&lt;/sub&gt;&lt;/font&gt;&lt;/i&gt;" style="ellipse;html=1;aspect=fixed;labelBackgroundColor=#000000;fontColor=#FFFFFF;fillColor=#000000;strokeColor=#CC6600;strokeWidth=2;" vertex="1" parent="1">
          <mxGeometry x="472" y="697" width="40" height="40" as="geometry" />
        </mxCell>
        <mxCell id="m7B9csSSpckp7PrpWBlc-110" style="edgeStyle=none;shape=connector;rounded=0;orthogonalLoop=1;jettySize=auto;html=1;exitX=1;exitY=0.5;exitDx=0;exitDy=0;entryX=0;entryY=0.5;entryDx=0;entryDy=0;labelBackgroundColor=default;strokeColor=#FFFFFF;align=center;verticalAlign=middle;fontFamily=Helvetica;fontSize=11;fontColor=default;endArrow=none;endFill=0;strokeWidth=2;" edge="1" parent="1" source="m7B9csSSpckp7PrpWBlc-112" target="m7B9csSSpckp7PrpWBlc-120">
          <mxGeometry relative="1" as="geometry" />
        </mxCell>
        <mxCell id="m7B9csSSpckp7PrpWBlc-111" style="edgeStyle=none;shape=connector;rounded=0;orthogonalLoop=1;jettySize=auto;html=1;exitX=1;exitY=0.5;exitDx=0;exitDy=0;entryX=0;entryY=0.5;entryDx=0;entryDy=0;labelBackgroundColor=default;strokeColor=#FFFFFF;align=center;verticalAlign=middle;fontFamily=Helvetica;fontSize=11;fontColor=default;endArrow=none;endFill=0;strokeWidth=2;" edge="1" parent="1" source="m7B9csSSpckp7PrpWBlc-112" target="m7B9csSSpckp7PrpWBlc-114">
          <mxGeometry relative="1" as="geometry" />
        </mxCell>
        <mxCell id="m7B9csSSpckp7PrpWBlc-112" value="&lt;i&gt;&lt;font face=&quot;Times New Roman&quot;&gt;v&lt;sub&gt;7&lt;/sub&gt;&lt;/font&gt;&lt;/i&gt;" style="ellipse;html=1;aspect=fixed;labelBackgroundColor=#000000;fontColor=#FFFFFF;fillColor=#000000;strokeColor=#00FF00;strokeWidth=2;" vertex="1" parent="1">
          <mxGeometry x="472" y="747" width="40" height="40" as="geometry" />
        </mxCell>
        <mxCell id="m7B9csSSpckp7PrpWBlc-113" value="&lt;i&gt;&lt;font face=&quot;Times New Roman&quot;&gt;c&lt;sub&gt;1&lt;/sub&gt;&lt;/font&gt;&lt;/i&gt;" style="ellipse;html=1;aspect=fixed;labelBackgroundColor=#000000;fontColor=#FFFFFF;fillColor=#000000;strokeColor=#FFFFFF;strokeWidth=2;" vertex="1" parent="1">
          <mxGeometry x="622" y="497" width="40" height="40" as="geometry" />
        </mxCell>
        <mxCell id="m7B9csSSpckp7PrpWBlc-114" value="&lt;i&gt;&lt;font face=&quot;Times New Roman&quot;&gt;c&lt;sub&gt;2&lt;/sub&gt;&lt;/font&gt;&lt;/i&gt;" style="ellipse;html=1;aspect=fixed;labelBackgroundColor=#000000;fontColor=#FFFFFF;fillColor=#000000;strokeColor=#FFFFFF;strokeWidth=2;" vertex="1" parent="1">
          <mxGeometry x="622" y="547" width="40" height="40" as="geometry" />
        </mxCell>
        <mxCell id="m7B9csSSpckp7PrpWBlc-115" style="edgeStyle=none;shape=connector;rounded=0;orthogonalLoop=1;jettySize=auto;html=1;exitX=0;exitY=0.5;exitDx=0;exitDy=0;entryX=1;entryY=0.5;entryDx=0;entryDy=0;labelBackgroundColor=default;strokeColor=#FFFFFF;align=center;verticalAlign=middle;fontFamily=Helvetica;fontSize=11;fontColor=default;endArrow=none;endFill=0;strokeWidth=2;" edge="1" parent="1" source="m7B9csSSpckp7PrpWBlc-116" target="m7B9csSSpckp7PrpWBlc-123">
          <mxGeometry relative="1" as="geometry" />
        </mxCell>
        <mxCell id="m7B9csSSpckp7PrpWBlc-116" value="&lt;i&gt;&lt;font face=&quot;Times New Roman&quot;&gt;c&lt;sub&gt;3&lt;/sub&gt;&lt;/font&gt;&lt;/i&gt;" style="ellipse;html=1;aspect=fixed;labelBackgroundColor=#000000;fontColor=#FFFFFF;fillColor=#000000;strokeColor=#FFFFFF;strokeWidth=2;" vertex="1" parent="1">
          <mxGeometry x="622" y="597" width="40" height="40" as="geometry" />
        </mxCell>
        <mxCell id="m7B9csSSpckp7PrpWBlc-117" style="edgeStyle=none;shape=connector;rounded=0;orthogonalLoop=1;jettySize=auto;html=1;exitX=0;exitY=0.5;exitDx=0;exitDy=0;labelBackgroundColor=default;strokeColor=#FFFFFF;align=center;verticalAlign=middle;fontFamily=Helvetica;fontSize=11;fontColor=default;endArrow=none;endFill=0;strokeWidth=2;" edge="1" parent="1" source="m7B9csSSpckp7PrpWBlc-118">
          <mxGeometry relative="1" as="geometry">
            <mxPoint x="512.5" y="817.6666666666667" as="targetPoint" />
          </mxGeometry>
        </mxCell>
        <mxCell id="m7B9csSSpckp7PrpWBlc-118" value="&lt;i&gt;&lt;font face=&quot;Times New Roman&quot;&gt;c&lt;sub&gt;4&lt;/sub&gt;&lt;/font&gt;&lt;/i&gt;" style="ellipse;html=1;aspect=fixed;labelBackgroundColor=#000000;fontColor=#FFFFFF;fillColor=#000000;strokeColor=#FFFFFF;strokeWidth=2;" vertex="1" parent="1">
          <mxGeometry x="622" y="647" width="40" height="40" as="geometry" />
        </mxCell>
        <mxCell id="m7B9csSSpckp7PrpWBlc-119" style="edgeStyle=none;shape=connector;rounded=0;orthogonalLoop=1;jettySize=auto;html=1;exitX=0;exitY=0.5;exitDx=0;exitDy=0;entryX=1;entryY=0.5;entryDx=0;entryDy=0;labelBackgroundColor=default;strokeColor=#FFFFFF;align=center;verticalAlign=middle;fontFamily=Helvetica;fontSize=11;fontColor=default;endArrow=none;endFill=0;strokeWidth=2;" edge="1" parent="1" source="m7B9csSSpckp7PrpWBlc-120" target="m7B9csSSpckp7PrpWBlc-123">
          <mxGeometry relative="1" as="geometry" />
        </mxCell>
        <mxCell id="m7B9csSSpckp7PrpWBlc-120" value="&lt;i&gt;&lt;font face=&quot;Times New Roman&quot;&gt;c&lt;sub&gt;5&lt;/sub&gt;&lt;/font&gt;&lt;/i&gt;" style="ellipse;html=1;aspect=fixed;labelBackgroundColor=#000000;fontColor=#FFFFFF;fillColor=#000000;strokeColor=#FFFFFF;strokeWidth=2;" vertex="1" parent="1">
          <mxGeometry x="622" y="697" width="40" height="40" as="geometry" />
        </mxCell>
        <mxCell id="m7B9csSSpckp7PrpWBlc-121" style="edgeStyle=none;shape=connector;rounded=0;orthogonalLoop=1;jettySize=auto;html=1;exitX=1;exitY=0.5;exitDx=0;exitDy=0;entryX=0;entryY=0.5;entryDx=0;entryDy=0;labelBackgroundColor=default;strokeColor=#FFFFFF;align=center;verticalAlign=middle;fontFamily=Helvetica;fontSize=11;fontColor=default;endArrow=none;endFill=0;strokeWidth=2;" edge="1" parent="1" source="m7B9csSSpckp7PrpWBlc-123" target="m7B9csSSpckp7PrpWBlc-113">
          <mxGeometry relative="1" as="geometry" />
        </mxCell>
        <mxCell id="m7B9csSSpckp7PrpWBlc-122" style="edgeStyle=none;shape=connector;rounded=0;orthogonalLoop=1;jettySize=auto;html=1;exitX=1;exitY=0.5;exitDx=0;exitDy=0;entryX=0;entryY=0.5;entryDx=0;entryDy=0;labelBackgroundColor=default;strokeColor=#FFFFFF;align=center;verticalAlign=middle;fontFamily=Helvetica;fontSize=11;fontColor=default;endArrow=none;endFill=0;strokeWidth=2;" edge="1" parent="1" source="m7B9csSSpckp7PrpWBlc-123" target="m7B9csSSpckp7PrpWBlc-114">
          <mxGeometry relative="1" as="geometry" />
        </mxCell>
        <mxCell id="m7B9csSSpckp7PrpWBlc-123" value="&lt;font style=&quot;&quot; face=&quot;Times New Roman&quot;&gt;STOP&lt;/font&gt;" style="ellipse;html=1;aspect=fixed;labelBackgroundColor=#000000;fontColor=#FFFFFF;fillColor=#000000;strokeColor=#3399FF;strokeWidth=2;" vertex="1" parent="1">
          <mxGeometry x="472" y="797" width="40" height="40" as="geometry" />
        </mxCell>
        <mxCell id="m7B9csSSpckp7PrpWBlc-124" value="" style="shape=flexArrow;endArrow=classic;html=1;rounded=0;labelBackgroundColor=default;strokeColor=#FFFFFF;align=center;verticalAlign=middle;fontFamily=Helvetica;fontSize=11;fontColor=default;edgeStyle=none;endWidth=25.30612244897959;endSize=6.405714285714287;width=21.714285714285715;strokeWidth=2;" edge="1" parent="1">
          <mxGeometry width="50" height="50" relative="1" as="geometry">
            <mxPoint x="350" y="623" as="sourcePoint" />
            <mxPoint x="444" y="625" as="targetPoint" />
          </mxGeometry>
        </mxCell>
        <mxCell id="m7B9csSSpckp7PrpWBlc-125" value="&lt;font face=&quot;Times New Roman&quot;&gt;select&amp;nbsp;&lt;/font&gt;&amp;nbsp;&lt;i style=&quot;border-color: var(--border-color); font-size: 12px;&quot;&gt;&lt;font style=&quot;border-color: var(--border-color);&quot; face=&quot;Times New Roman&quot;&gt;v&lt;sub style=&quot;border-color: var(--border-color);&quot;&gt;6&lt;/sub&gt;&lt;/font&gt;&lt;/i&gt;&amp;nbsp;" style="edgeLabel;html=1;align=center;verticalAlign=bottom;resizable=0;points=[];fontSize=11;fontFamily=Helvetica;fontColor=#FFFFFF;labelBackgroundColor=#000000;" vertex="1" connectable="0" parent="m7B9csSSpckp7PrpWBlc-124">
          <mxGeometry x="0.049" y="-2" relative="1" as="geometry">
            <mxPoint x="-5" y="8" as="offset" />
          </mxGeometry>
        </mxCell>
      </root>
    </mxGraphModel>
  </diagram>
</mxfile>
